<svg xmlns="http://www.w3.org/2000/svg" viewBox="0 0 50 50">
    <path
        d="M 24.984375 1.9863281 A 1.0001 1.0001 0 0 0 24.814453 2.0039062 C 12.274875 2.103865 2.1091127 12.266356 2.0039062 24.804688 A 1.0001 1.0001 0 0 0 2.0039062 25.183594 C 2.1028204 37.724064 12.265693 47.890882 24.804688 47.996094 A 1.0001 1.0001 0 0 0 25.183594 47.996094 C 37.724073 47.89718 47.890882 37.734298 47.996094 25.195312 A 1.0001 1.0001 0 0 0 47.996094 24.816406 C 47.897159 12.27332 37.7301 2.104941 25.1875 2.0039062 C 25.186192 2.0038957 25.184902 2.0039166 25.183594 2.0039062 A 1.0001 1.0001 0 0 0 24.984375 1.9863281 z M 24 4.0253906 L 24 5 A 1.0001 1.0001 0 1 0 26 5 L 26 4.0253906 C 36.812785 4.5308198 45.469181 13.187222 45.974609 24 L 45 24 A 1.0001 1.0001 0 1 0 45 26 L 45.974609 26 C 45.469181 36.812778 36.812785 45.46918 26 45.974609 L 26 45 A 1.0001 1.0001 0 0 0 24.984375 43.986328 A 1.0001 1.0001 0 0 0 24 45 L 24 45.974609 C 13.187215 45.46918 4.5308194 36.812778 4.0253906 26 L 5 26 A 1.0001 1.0001 0 1 0 5 24 L 4.0253906 24 C 4.5308194 13.187222 13.187215 4.5308198 24 4.0253906 z M 24.798828 20.71875 L 8.3867188 24.017578 C 7.9197188 24.111578 7.5839844 24.522047 7.5839844 24.998047 C 7.5839844 25.474047 7.9197188 25.884516 8.3867188 25.978516 L 24.800781 29.279297 C 24.865781 29.292297 24.932047 29.300781 24.998047 29.300781 C 25.064047 29.300781 25.130312 29.292297 25.195312 29.279297 L 41.609375 25.980469 C 42.076375 25.886469 42.412109 25.476 42.412109 25 C 42.412109 24.524 42.076375 24.113531 41.609375 24.019531 L 25.193359 20.71875 C 25.062359 20.69275 24.929828 20.69275 24.798828 20.71875 z M 24.998047 22.71875 L 36.341797 25 L 24.998047 27.279297 L 24.998047 22.71875 z" />
</svg>