<svg width="1024" height="1024" xmlns="http://www.w3.org/2000/svg"><g transform="translate(-5004.927 -1344.2) scale(10.96653)"><rect width="93.375" height="93.375" x="456.382" y="122.573" ry="16.849" fill="#5c87e4"/><path d="M510.104 163.92l-2.877 10.388a2.156 2.156 0 01-2.654 1.503v0a2.156 2.156 0 01-1.502-2.654m20.538-5.498c2.064-7.46-2.309-15.179-9.767-17.245-7.46-2.064-15.178 2.308-17.244 9.767v0a4.573 4.573 0 016.234 1.725v0a5.274 5.274 0 016.772 1.368l.499.645.76-.297a5.274 5.274 0 016.512 2.31v0a4.573 4.573 0 016.234 1.727zm-9.767-17.245l.288-1.039" fill="none" stroke="currentColor" stroke-linecap="round" stroke-linejoin="round" stroke-width="2.156"/><path style="-inkscape-font-specification:Cantarell" d="M487.273 190.224h2.514l6.18-19.779h-1.273l6.542 19.779h2.424l6.24-21.02h-2.515l-5.512 19.839h1.363l-6.33-19.688h-2.818L488 189.043h1.212l-5.361-19.84h-2.908z" aria-label="W" font-size="15.597" font-family="Cantarell"/></g></svg>