<svg viewBox="0 0 71.842 71.842" xmlns="http://www.w3.org/2000/svg">
  <g transform="matrix(.7694 0 0 .7694 -351.137 -94.307)">
    <rect width="93.375" height="93.375" x="456.382" y="122.573" ry="16.849" fill="#5c87e4" />
    <path
      d="M515.266 160.897l-2.517 10.482a2.156 2.156 0 01-2.6 1.593h0a2.156 2.156 0 01-1.593-2.6m20.336-6.203c1.806-7.526-2.83-15.09-10.355-16.898-7.526-1.806-15.09 2.83-16.897 10.355h0a4.573 4.573 0 016.289 1.51h0a5.274 5.274 0 016.816 1.133l.52.628.75-.323a5.274 5.274 0 016.588 2.085h0a4.573 4.573 0 016.289 1.51zm-10.355-16.898l.252-1.048"
      fill="none" stroke="currentColor" stroke-linecap="round" stroke-linejoin="round" stroke-width="2.156" /><text
      x="372.162" y="173.257" font-size="45.156" stroke-width=".265" transform="translate(102.119 20.119)">
      <tspan x="372.162" y="173.257">W</tspan>
    </text>
  </g>
</svg>